<svg xmlns="http://www.w3.org/2000/svg" xmlns:ev="http://www.w3.org/2001/xml-events" xmlns:xlink="http://www.w3.org/1999/xlink" width="431.775" height="482.646" class="st13" color-interpolation-filters="sRGB" viewBox="0 0 323.832 361.984" xml:space="preserve"><style type="text/css">.st1{fill:#acb0b6;stroke:#a5a5a5;stroke-linecap:round;stroke-linejoin:round;stroke-width:.75}.st2{fill:#000;font-family:Arial;font-size:.666664em}.st3{font-size:1em}.st4{fill:#002060;stroke:#000;stroke-linecap:round;stroke-linejoin:round;stroke-width:.75}.st5{fill:#fff;font-family:Arial;font-size:.666664em}.st6,.st7{stroke:none}.st6{fill:#0098c4;stroke-linecap:round;stroke-linejoin:round;stroke-width:.75}.st7{fill:#d4d6d9;stroke-width:.25}.st8{fill:#7f7f7f;font-family:Arial;font-size:1.00001em;font-weight:700}.st9{marker-end:url(#mrkr4-20);stroke:#000;stroke-linecap:round;stroke-linejoin:round;stroke-width:1}.st10{fill:#000;fill-opacity:1;stroke:#000;stroke-opacity:1;stroke-width:.28409090909091}.st11{fill:#fff;stroke:none;stroke-linecap:butt}.st12{fill:#7f7f7f;font-family:Arial;font-size:.666664em;font-weight:700}.st13{fill:none;fill-rule:evenodd;font-size:12px;overflow:visible;stroke-linecap:square;stroke-miterlimit:3}</style><defs id="Markers"><g id="lend4"><path d="M 2 1 L 0 0 L 2 -1 L 2 1" style="stroke:none"/></g><marker id="mrkr4-20" class="st10" markerUnits="strokeWidth" orient="auto" overflow="visible" refX="-7.04"><use transform="scale(-3.52,-3.52)" xlink:href="#lend4"/></marker></defs><g><title>Page-1</title><g id="shape1-1" transform="translate(47.8788,-315.638)"><title>Rectangle</title><desc>Start (floating-point model)</desc><rect width="113.386" height="28.346" x="0" y="333.638" class="st1"/><text x="9.56" y="350.21" class="st2">Start (<tspan class="st3">f</tspan>loating-point model)</text></g><g id="shape3-5" transform="translate(47.8788,-18)"><title>Rectangle.3</title><desc>Compile &amp; run on Hailo-8</desc><rect width="113.386" height="28.346" x="0" y="333.638" class="st4"/><text x="12.01" y="350.21" class="st5">Compile &amp; run on Hailo-8</text></g><g id="shape4-8" transform="translate(47.8788,-258.945)"><title>Rectangle.6</title><desc>Validate accuracy in full precision</desc><rect width="113.386" height="28.346" x="0" y="333.638" class="st6"/><text x="14.67" y="345.41" class="st5">Validate accuracy in full <tspan x="40.69" class="st3" dy="1.2em">precision</tspan></text></g><g id="shape6-12" transform="translate(18.25,-202.252)"><title>Circle.22</title><desc>2</desc><path d="M0 347.81 A14.1732 14.1732 0 1 1 28.35 347.81 A14.1732 14.1732 0 0 1 -0 347.81 Z" class="st7"/><text x="10.84" y="351.41" class="st8">2</text></g><g id="shape8-15" transform="translate(97.4851,-145.559)"><title>Dynamic connector.1011</title><path d="M7.09 361.98 L7.09 383.29" class="st9"/></g><g id="shape14-21" transform="translate(47.8788,-145.559)"><title>Rectangle.1033</title><desc>Validate accuracy of the optimized model</desc><rect width="113.386" height="28.346" x="0" y="333.638" class="st6"/><text x="14" y="345.41" class="st5">Validate accuracy of the <tspan x="27.57" class="st3" dy="1.2em">optimized model</tspan></text></g><g id="shape15-25" transform="translate(97.4851,-315.638)"><title>Dynamic connector.1034</title><path d="M7.09 361.98 L7.09 383.29" class="st9"/></g><g id="shape16-30" transform="translate(97.4851,-258.945)"><title>Dynamic connector.1035</title><path d="M7.09 361.98 L7.09 383.29" class="st9"/></g><g id="shape21-35" transform="translate(18.25,-258.945)"><title>Circle.1043</title><desc>1</desc><path d="M0 347.81 A14.1732 14.1732 0 1 1 28.35 347.81 A14.1732 14.1732 0 0 1 -0 347.81 Z" class="st7"/><text x="10.84" y="351.41" class="st8">1</text></g><g id="shape27-38" transform="translate(47.8788,-202.252)"><title>Rectangle.27</title><desc>Apply model optimization (GPU recommended)</desc><rect width="113.386" height="28.346" x="0" y="333.638" class="st6"/><text x="12.23" y="345.41" class="st5">Apply model optimization<tspan x="18.68" class="st3" dy="1.2em">(GPU recommended)</tspan></text></g><g id="shape28-42" transform="translate(111.658,-202.252)"><title>Dynamic connector.28</title><path d="M-7.09 361.98 L-7.09 383.29" class="st9"/></g><g id="shape29-47" transform="translate(18.25,-145.559)"><title>Circle.29</title><desc>3</desc><path d="M0 347.81 A14.1732 14.1732 0 1 1 28.35 347.81 A14.1732 14.1732 0 0 1 -0 347.81 Z" class="st7"/><text x="10.84" y="351.41" class="st8">3</text></g><g id="shape1000-50" transform="translate(47.8788,-74.6929)"><title>Decision.1000</title><desc>Accuracy is good enough?</desc><path d="M0 340.72 L56.69 319.46 L113.39 340.72 L56.69 361.98 L0 340.72 Z" class="st6"/><text x="26.23" y="338.32" class="st5">Accuracy is good <tspan x="41.12" class="st3" dy="1.2em">enough?</tspan></text></g><g id="shape1001-54" transform="translate(97.4851,-74.6929)"><title>Dynamic connector.1001</title><desc>Yes</desc><path d="M7.09 361.98 L7.09 383.29" class="st9"/><rect width="14.234" height="9.6" x=".28" y="366.681" class="st11"/><text x=".28" y="373.88" class="st12">Yes</text></g><g id="shape1002-61" transform="translate(192.446,-145.559)"><title>Rectangle.1002</title><desc>Increase the optimization level / Decrease the compression le...</desc><rect width="113.386" height="28.346" x="0" y="333.638" class="st6"/><text x="12.22" y="340.61" class="st5">Increase the optimization <tspan x="21.34" class="st3" dy="1.2em">level / Decrease the </tspan><tspan x="24.68" class="st3" dy="1.2em">compression level</tspan></text></g><g id="shape1003-66" transform="translate(161.265,-95.9528)"><title>Dynamic connector.1003</title><desc>No</desc><path d="M0 361.98 L87.87 361.98 L87.87 319.42" class="st9"/><rect width="10.664" height="9.6" x="4.899" y="357.61" class="st11"/><text x="4.9" y="364.81" class="st12">No</text></g><g id="shape1004-73" transform="translate(192.446,-152.646)"><title>Dynamic connector.1004</title><path d="M0 354.9 L-24.14 354.9" class="st9"/></g><g id="shape1005-78" transform="translate(192.446,-202.252)"><title>Rectangle.1005</title><desc>Dataset (Recommended &gt;1024)</desc><rect width="113.386" height="28.346" x="0" y="333.638" class="st1"/><text x="42.91" y="345.41" class="st2">Dataset<tspan x="14.56" class="st3" dy="1.2em">(Recommended &gt;1024)</tspan></text></g><g id="shape1006-82" transform="translate(192.446,-209.339)"><title>Dynamic connector.1006</title><path d="M0 354.9 L-24.14 354.9" class="st9"/></g></g></svg>