<svg xmlns="http://www.w3.org/2000/svg" xmlns:ev="http://www.w3.org/2001/xml-events" xmlns:xlink="http://www.w3.org/1999/xlink" width="616.137" height="430.885" class="st14" color-interpolation-filters="sRGB" viewBox="0 0 462.102 323.164" xml:space="preserve"><style type="text/css">.st1{fill:#0098c4;stroke:none;stroke-linecap:round;stroke-linejoin:round;stroke-width:.75}.st2{fill:#fff;font-family:Arial;font-size:.833336em}.st3,.st4{stroke:#000}.st3{marker-end:url(#mrkr4-9);stroke-linecap:round;stroke-linejoin:round;stroke-width:1}.st4{fill:#000;fill-opacity:1;stroke-opacity:1;stroke-width:.28409090909091}.st5{fill:#fff;stroke:none;stroke-linecap:butt;stroke-width:7.2}.st6{fill:#7f7f7f;font-family:Arial;font-size:.833336em;font-weight:700}.st7{font-size:.599989em}.st8{fill:#acb0b6;stroke:#a5a5a5;stroke-linecap:round;stroke-linejoin:round;stroke-width:.75}.st9{fill:#000;font-family:Arial;font-size:.833336em}.st10{font-size:1em}.st11{marker-end:url(#mrkr4-9);stroke:#000;stroke-dasharray:7,5;stroke-linecap:round;stroke-linejoin:round;stroke-width:1}.st12{fill:#acb0b6}.st13{stroke:#000;stroke-linecap:round;stroke-linejoin:round;stroke-width:.75}.st14{fill:none;fill-rule:evenodd;font-size:12px;overflow:visible;stroke-linecap:square;stroke-miterlimit:3}</style><defs id="Markers"><g id="lend4"><path d="M 2 1 L 0 0 L 2 -1 L 2 1" style="stroke:none"/></g><marker id="mrkr4-9" class="st4" markerUnits="strokeWidth" orient="auto" overflow="visible" refX="-7.04"><use transform="scale(-3.52,-3.52)" xlink:href="#lend4"/></marker></defs><g><title>Page-1</title><g id="shape1-1" transform="translate(203.157,-240.6)"><title>Rectangle.6</title><desc>Parse</desc><rect width="113.386" height="28.346" x="0" y="294.818" class="st1"/><text x="43.63" y="311.99" class="st2">Parse</text></g><g id="shape2-4" transform="translate(252.764,-297.293)"><title>Dynamic connector.1034</title><desc>CKPT / ONNX</desc><path d="M7.09 323.16 L7.09 344.47" class="st3"/><rect width="64.448" height="12" x="10.295" y="319.999" class="st5"/><text x="10.3" y="329" class="st6">CKPT / ONNX</text></g><g id="shape3-12" transform="translate(252.764,-240.6)"><title>Dynamic connector.3</title><desc>HAR1</desc><path d="M7.09 323.16 L7.09 344.47" class="st3"/><rect width="25.002" height="12" x="15.846" y="331.338" class="st5"/><text x="15.85" y="340.34" class="st6">HAR<tspan class="st7">1</tspan></text></g><g id="shape4-20" transform="translate(203.157,-183.907)"><title>Rectangle.4</title><desc>Optimize</desc><rect width="113.386" height="28.346" x="0" y="294.818" class="st1"/><text x="36.97" y="311.99" class="st2">Optimize</text></g><g id="shape6-23" transform="translate(252.764,-183.907)"><title>Dynamic connector.6</title><desc>HAR2</desc><path d="M7.09 323.16 L7.09 344.47" class="st3"/><rect width="25.002" height="12" x="15.846" y="331.338" class="st5"/><text x="15.85" y="340.34" class="st6">HAR<tspan class="st7">2</tspan></text></g><g id="shape7-31" transform="translate(203.157,-127.214)"><title>Rectangle.7</title><desc>Compile</desc><rect width="113.386" height="28.346" x="0" y="294.818" class="st1"/><text x="38.35" y="311.99" class="st2">Compile</text></g><g id="shape8-34" transform="translate(252.764,-127.214)"><title>Dynamic connector.8</title><desc>HEF</desc><path d="M7.09 323.16 L7.09 344.47" class="st3"/><rect width="20" height="12" x="18.346" y="331.338" class="st5"/><text x="18.35" y="340.34" class="st6">HEF</text></g><g id="shape10-41" transform="translate(203.157,-70.5215)"><title>Rectangle</title><desc>Eval</desc><rect width="113.386" height="28.346" x="0" y="294.818" class="st8"/><text x="46.97" y="311.99" class="st9">Eval</text></g><g id="shape11-44" transform="translate(252.764,-70.5215)"><title>Dynamic connector.11</title><desc>Evaluation Results</desc><path d="M7.09 323.16 L7.09 344.47" class="st3"/><rect width="89.468" height="12" x="-37.648" y="359.684" class="st5"/><text x="-37.65" y="368.68" class="st6">Evaluation Results</text></g><g id="shape12-51" transform="translate(68.5118,-240.6)"><title>Rectangle.12</title><desc>Profile</desc><rect width="113.386" height="28.346" x="0" y="294.818" class="st1"/><text x="42.52" y="311.99" class="st2">Profile</text></g><g id="shape13-54" transform="translate(203.157,-247.687)"><title>Dynamic connector.13</title><path d="M0 316.08 L-14.22 316.08" class="st3"/></g><g id="shape14-59" transform="translate(68.5118,-247.687)"><title>Dynamic connector.14</title><desc>Profiler Report</desc><path d="M0 316.08 L-14.22 316.08" class="st3"/><rect width="35.01" height="24" x="-43.017" y="282.818" class="st5"/><text x="-43.02" y="291.82" class="st6">Profiler <tspan x="-41.62" class="st10" dy="1.2em">Report</tspan></text></g><g id="shape15-67" transform="translate(125.205,-190.994)"><title>Dynamic connector.15</title><desc>HAR1</desc><path d="M0 316.08 L70.91 316.08" class="st11"/><rect width="25.002" height="12" x="1.672" y="302.991" class="st5"/><text x="1.67" y="311.99" class="st6">HAR<tspan class="st7">1</tspan></text></g><g id="shape18-75" transform="translate(125.205,-134.301)"><title>Dynamic connector.18</title><desc>HAR2</desc><path d="M0 316.08 L70.91 316.08" class="st11"/><rect width="25.002" height="12" x="1.672" y="302.991" class="st5"/><text x="1.67" y="311.99" class="st6">HAR<tspan class="st7">2</tspan></text></g><g id="shape19-83" transform="translate(125.205,-77.6081)"><title>Dynamic connector.19</title><desc>HEF</desc><path d="M0 316.08 L70.91 316.08" class="st11"/><rect width="20" height="12" x="4.173" y="302.991" class="st5"/><text x="4.17" y="311.99" class="st6">HEF</text></g><g id="shape20-90" transform="translate(373.236,-169.734)"><title>Disk storage</title><desc>Dataset</desc><path d="M0 273.56 L0 316.08 A35.4331 7.08661 -180 1 0 70.87 316.08 L70.87 273.56 A35.4331 7.08661 -180 1 0 -0 273.56 Z" class="st12"/><path d="M0 273.56 L0 316.08 A35.4331 7.08661 -180 1 0 70.87 316.08 L70.87 273.56 A35.4331 7.08661 -180 1 0 -0 273.56" class="st13"/><path d="M0 273.56 A35.4331 7.08661 -180 1 0 70.87 273.56" class="st13"/><path d="M0 277.1 A35.4331 7.08661 -180 1 0 70.87 277.1" class="st13"/><text x="18.2" y="308.45" class="st9">Dataset</text></g><g id="shape21-96" transform="translate(373.236,-190.994)"><title>Dynamic connector.21</title><desc>Calibration Data</desc><path d="M0 316.08 L-49.65 316.08" class="st3"/><rect width="52.227" height="24" x="-54.46" y="286.503" class="st5"/><text x="-54.46" y="295.5" class="st6">Calibration<tspan x="-39.18" class="st10" dy="1.2em">Data</tspan></text></g><g id="shape22-104" transform="translate(408.669,-169.734)"><title>Dynamic connector.22</title><desc>Validation Data</desc><path d="M0 323.16 L0 408.2 L-85.09 408.2" class="st3"/><rect width="47.784" height="24" x="-85.54" y="382.031" class="st5"/><text x="-85.54" y="391.03" class="st6">Validation<tspan x="-72.49" class="st10" dy="1.2em">Data</tspan></text></g></g></svg>